<?xml version="1.0" encoding="UTF-8"?><svg id="Warstwa_2" xmlns="http://www.w3.org/2000/svg" viewBox="0 0 339.48 258.84"><defs><style>.cls-1{letter-spacing:.01em;}.cls-2{letter-spacing:.01em;}.cls-3{font-size:92px;}.cls-3,.cls-4{fill:#f6240d;font-family:FiraSans-SemiBold, 'Fira Sans';}.cls-5,.cls-6{fill:#00ba3f;}.cls-6{font-family:FiraSansCondensed-Regular, 'Fira Sans Condensed';font-size:26.66px;}.cls-7{letter-spacing:0em;}.cls-4{font-size:105.77px;}.cls-8{letter-spacing:.02em;}.cls-9{letter-spacing:-.02em;}.cls-10{letter-spacing:-.01em;}.cls-11{letter-spacing:0em;}.cls-12{letter-spacing:-.02em;}.cls-13{letter-spacing:.01em;}.cls-14{letter-spacing:-.06em;}.cls-15{letter-spacing:0em;}</style></defs><g id="Warstwa_1-2"><g><path class="cls-5" d="M249.68,10.94c1.01-.72,3.33-2.18,6.65-2.48,2.84-.25,5.07,.46,6.2,.91h0c1.06,2.18,2.83,3.16,5.23,3.07h0c.5,.5,.99,1.01,1.49,1.51l.02-.02c.44,.75,1.46,1.34,1.51,2.24,2.73,5.12,.65,7.37,7.51,6.82,0,.77,0,1.55-.01,2.32-1.75,0-3.49,0-5.24,0,.2-3.16-2.19-2.14-3.81-2.36,.45-3.97-.54-7.22-4.51-8.98-.3,.07-.6,.14-.91,.21l.06-.23-.08,.23c-.2-.29-.4-.58-.6-.87-6.63-2.02-13.38,.29-16.4,6.8-.34-.43-.67-.86-1.01-1.3l1.01,1.29c-.51,2.62,1,3.23,3,2.85,4.98,.06,9.96,.03,14.94,.03v2.32c-10.17,1.42-20.64-.05-30.89,.57-1.81,11.11-.29,22.71-.77,34,0,4.66,.54,5.2,5.17,5.2,22.79-.01,45.57,.03,68.36-.1,5.39-3.8,4.28-12.7,7.87-17.92-.05-.27-.09-.54-.14-.81h0c.27,0,.54,0,.81,0,.26,.27,.52,.54,.78,.82,.17,2.27-.17,4.56,.04,6.81v-.02c-2.85,3.84-3.51,14.38-8.81,14.16-25.17,.16-50.42-.49-75.56,.15l.03-.03c-3.47-17.45-.6-35.81-1.5-53.59,0-1.8,.51-4.12-2.71-3.42-3.28-1.06-6.57-2.12-10.08-3.26,.49-1.55,.85-2.68,1.37-4.29,4,2.24,14.82,3.07,15.01,7.79,1.02,3.61-2.54,10.58,3.44,10.47,4.99,.71,6.03-2.79,7.96-6.47h-.02c1.72-1.29,3.12-2.91,4.6-4.45Z"/><path class="cls-5" d="M261.63,95.77c-5.87,11.21-21.53,7.77-23.65-3.89-1.93-10.56,11.72-19.53,20.04-11.72,.18,0,.53,0,.71,0,.51,.5,1.02,1.01,1.53,1.51-.01,.23-.01,.46,0,.69,.52,.76,1.03,1.53,1.55,2.29v-.04c-.06,3.72-.12,7.44-.18,11.16Zm-18.1-1.97c7.01,10.43,20.76-.38,13.1-9.52-6.19-6.64-17.98,.72-13.1,9.52Z"/><path class="cls-5" d="M294.82,101.22c-14.68,7.44-26.22-16.1-10.11-22.72,7.89,.17,10.48-1.85,14.67,6.14-.51,.52-1.02,1.04-1.54,1.56-.26,.01-.52,.03-.78,.04-5.41-10.21-21-1.08-14.2,8.63,2.89,5.43,13.75,3.77,14.99-3.39,1.78-1.01,1.79-2.01-.02-3l-.04,.04c.02-.77,.04-1.54,.06-2.3l1.56-1.54c.48,.01,.97,.03,1.45,.04-.09,5.19,1.39,10.55-2.96,14.36v-.02c-.91,.87-2.03,1.47-3.08,2.17Zm-5.61-1.18c.02,.35,.04,.7,.06,1.05,.75-.09,1.49-.17,2.24-.26l-.09-.79h-2.2Z"/><path class="cls-5" d="M285.34,15.55c13.1-14.51,8.11-8.84,21.61,2.88-1.18,.48-2.13,1.63-3.23,2.34-.52-.48-1.02-.97-1.53-1.46,0,0,.07,.06,.07,.06-1.07-.89-2.04-1.9-3.04-2.86-.07-.95,.86-2.84-1.53-1.64,.06-6.66-7.44,2.35-9.58,3.61-3.25-.56-1.65,2.79-3.05,4.46-1.01-.24-2.02-.48-3.03-.72-.26-.28-.52-.55-.79-.83l1.43-3.06s-.01,.01-.01,.01c.89-.93,1.78-1.87,2.67-2.8Z"/><path class="cls-5" d="M231.58,68.18c25.14-.64,50.38,0,75.56-.15,5.39,.16,5.9-10.28,8.82-14.16-2.06,3.75-2.57,14.51-7.37,14.6-25.65-.12-51.37,.47-77-.29Z"/><path class="cls-5" d="M227.39,11.14c3.23-.71,2.71,1.61,2.71,3.42,.9,17.78-1.97,36.14,1.5,53.59h-1.51c-2.53-18.6,1.58-38.11-1.84-56.47-.29-.18-.58-.36-.87-.54Z"/><path class="cls-5" d="M228.26,11.68c3.42,18.36-.7,37.87,1.84,56.46-3.41-18.25,.87-37.93-1.84-56.46Z"/><path class="cls-5" d="M310.6,21.53c17.88,.38,19.62-3.96,11.77,14.92-.18,0-.35,0-.52-.02,.44-4.05,3.02-7.63,3.16-11.84,.42-.47,.85-.94,1.27-1.41-.45-.3-.9-.59-1.35-.89-4.94-.36-9.75,1.35-14.48-.54,0,0,.15-.21,.15-.21Z"/><path class="cls-5" d="M321.85,36.42c.17,.02,.35,.03,.52,.02-2.03,5.53-4.05,11.07-6.08,16.6-.15,.05-.3,.07-.45,.08,.19-5.91,4.43-10.96,6.03-16.64,0,0-.02-.06-.02-.06Z"/><path class="cls-5" d="M272.43,20.3c-.21-.83-.25-1.67-.26-2.53l.26-.21c1.68,3.38,4.9,2.16,7.59,2.54-.11,.41-.22,.81-.33,1.22-2.49,.16-5.13,1.4-7.26-1.02Z"/><path class="cls-5" d="M261.63,95.77c.06-3.72,.12-7.44,.18-11.16,2.42,3.76,2.15,7.48-.18,11.16Z"/><path class="cls-5" d="M261.78,9.49c-2.86-.05-5.73,0-8.58-.26,2.79-1.67,5.63-1.68,8.52-.29,.03,.18,.05,.37,.06,.55Z"/><path class="cls-5" d="M300.99,94.7c-.04-3.33-.09-6.66-.13-9.99,2.2,3.3,2.29,6.63,.13,9.99Z"/><path class="cls-5" d="M299.38,84.64c-1.01-1.48-2.03-2.96-3.04-4.45,.02-.24,.02-.47,0-.71,1.5,1.74,3,3.48,4.5,5.23-.47-.01-.95-.03-1.42-.04l-.03-.03Z"/><path class="cls-5" d="M294.39,78.52c-3.22,0-6.45-.01-9.67-.02,3.23-2.01,6.45-2.01,9.67,.02Z"/><path class="cls-5" d="M267.75,12.44c-2.4,.1-4.17-.89-5.23-3.07,2.1-.13,3.52,1.34,5.17,2.43,.02,.21,.04,.43,.06,.64Z"/><path class="cls-5" d="M297.9,99.07c.97-1.28,1.93-2.56,2.9-3.84-.97,1.28-1.93,2.56-2.9,3.84Z"/><path class="cls-5" d="M249.68,10.94c-.98,1.02-1.95,2.05-2.93,3.07-.23-.03-.46-.04-.69-.03,1.21-1.01,2.41-2.03,3.62-3.04Z"/><path class="cls-5" d="M306.95,18.43c1.22,1.03,2.43,2.06,3.65,3.1l-.15,.21c-1.29-1.06-2.57-2.13-3.86-3.19,.1-.09,.22-.13,.36-.11Z"/><path class="cls-5" d="M285.34,15.55c-.89,.93-1.78,1.87-2.67,2.8,.89-.93,1.78-1.87,2.67-2.8Z"/><path class="cls-5" d="M279.69,21.33c.11-.41,.22-.81,.33-1.22,.89-.59,1.78-1.17,2.67-1.76-.48,1.02-.95,2.04-1.43,3.06-.47,.08-.94,.16-1.41,.24l-.16-.31Z"/><path class="cls-5" d="M253.2,9.24c.83,.06,1.67,.12,2.5,.18-1.04,.48-2.09,.97-3.13,1.45,.04-.48,.08-.96,.11-1.43,.13-.16,.3-.22,.51-.2Z"/><path class="cls-5" d="M252.68,9.43c-.04,.48-.08,.96-.11,1.43-.85-.05-1.7-.1-2.56-.16,.89-.43,1.78-.85,2.67-1.28Z"/><path class="cls-5" d="M294.82,101.22c.76-.49,1.51-.98,2.27-1.46-.76,.49-1.51,.98-2.27,1.46Z"/><path class="cls-5" d="M261.8,84.65c-.52-.76-1.03-1.53-1.55-2.29,.46,.33,.92,.66,1.38,.99,.06,.43,.11,.87,.17,1.3Z"/><path class="cls-5" d="M258.01,80.16c-.76-.51-1.53-1.02-2.29-1.53,.44,.05,.88,.1,1.32,.14,.32,.46,.65,.93,.97,1.39Z"/><path class="cls-5" d="M270.77,16.16c.04-.26-.03-.47-.22-.65,.02-.25,.04-.51,.05-.76,.61,.94,1.22,1.88,1.83,2.81,0,0-.26,.21-.26,.21-.47-.54-.93-1.08-1.4-1.62Z"/><path class="cls-5" d="M245.1,15.39c-.46,.77-.92,1.55-1.38,2.32,.46-.77,.92-1.55,1.38-2.32Z"/><path class="cls-5" d="M296.33,79.49c.02,.24,.02,.47,0,.71-.5-.52-.99-1.03-1.49-1.55,.5,.28,.99,.56,1.49,.84Z"/><path class="cls-5" d="M246.06,13.98c.23-.01,.46,0,.69,.03-.56,.46-1.11,.91-1.67,1.37,.33-.47,.65-.93,.98-1.4Z"/><path class="cls-5" d="M270.6,14.75c-.02,.25-.04,.51-.05,.76-.43-.53-.86-1.06-1.28-1.59,.45,.27,.89,.55,1.34,.82Z"/><path class="cls-5" d="M258.01,80.16c-.32-.46-.65-.93-.97-1.39,.56,.46,1.12,.92,1.68,1.38-.18,0-.53,0-.71,0Z"/><path class="cls-5" d="M260.24,81.65c-.5-.5-1-.99-1.5-1.49,.5,.5,1,.99,1.5,1.49Z"/><path class="cls-5" d="M261.63,83.35c-.46-.33-.92-.66-1.38-.99-.01-.23-.01-.46,0-.69,.46,.56,.92,1.12,1.38,1.68Z"/><path class="cls-5" d="M269.24,13.95l-1.49-1.52c.33,.19,.65,.38,.98,.57l-.05-.06c.19,.34,.38,.67,.57,1.01Z"/><path class="cls-5" d="M261.78,9.49c0-.19-.03-.37-.06-.55,.27,.14,.54,.29,.81,.43-.25,.04-.5,.08-.75,.12Z"/><path class="cls-5" d="M315.84,53.13c.15,0,.31-.03,.45-.08l-.35,.84c-.04-.25-.07-.51-.11-.76Z"/><path class="cls-5" d="M268.67,12.94l.05,.06-.05-.06Z"/><path class="cls-5" d="M297.09,99.75c.27-.24,.55-.47,.82-.71-.27,.24-.55,.47-.82,.71Z"/><path class="cls-5" d="M303.89,26.01c-23.26,.77-46.45,.19-69.75,.43-.59,11.32-.05,22.32-.31,33.61-.04,2.66,.57,3.74,3.52,3.72,23.71-.13,47.41-.13,71.12-.13-.62,.47-1.24,1.34-1.86,1.34-22.79,.13-45.57,.09-68.36,.1-4.62,0-5.16-.54-5.17-5.2,.47-11.29-1.05-22.89,.76-34,23.4-.34,46.64-.43,70.05,.13Z"/><path class="cls-5" d="M246.73,21.33h21.32c.32-2.91-1.77-4.57-3.42-6.45,.03-.3,.05-.6,.08-.9,3.96,1.76,4.95,5.01,4.51,8.98-6.48,.03-12.96,.06-19.43,0-1.22-.01-2.96,.61-3.05-1.63Z"/><path class="cls-5" d="M320.38,40.3c-.98,2.26-1.95,4.51-2.93,6.77-.51,0-1.03,0-1.54,0-.26-.27-.52-.54-.78-.82,.66-3.47,2.31-6.56,3.76-9.74,.51,0,1.02,0,1.53,.01,0,0,.09,.09,.09,.09-.04,1.23-.08,2.46-.13,3.69Z"/><path class="cls-5" d="M264.73,22.99c2.38,.53,8.75-1.71,8.29,2.33-2.77,0-5.54,0-8.31-.01,0-.77,0-1.55,.01-2.32Z"/><path class="cls-5" d="M309.82,58.31c1.07-2.9,2.15-5.8,3.22-8.69-.98,2.95-.8,6.5-3.02,8.83l-.2-.14Z"/><path class="cls-5" d="M272.43,20.3c2.13,2.42,4.77,1.18,7.26,1.02l.16,.31c-.52,.45-1.05,.9-1.57,1.34-2.17-.42-5.26,1.19-5.85-2.68Z"/><path class="cls-5" d="M278.28,22.99c.52-.45,1.05-.9,1.57-1.34,.47-.08,.94-.16,1.41-.24,.26,.28,.52,.55,.79,.83-.77,1.04-1.54,2.09-2.31,3.13-.49-.02-.98-.04-1.47-.05v-2.32Z"/><path class="cls-5" d="M263.21,14l-6.79-1.33s-.04-.3-.04-.3c2.27,.31,4.53,.63,6.8,.94,.01,.23,.02,.46,.03,.69Z"/><path class="cls-5" d="M316.05,42.71c-.31,1.18-.61,2.36-.92,3.55-.27,0-.54,0-.81,0,.52-1.51,1.03-3.01,1.55-4.52,.06,.32,.12,.65,.17,.97Z"/><path class="cls-5" d="M256.39,12.37s.04,.3,.04,.3c-1.26,.37-2.52,.74-3.78,1.11,1.25-.47,2.49-.94,3.74-1.41Z"/><path class="cls-5" d="M315.91,47.07c.51,0,1.03,0,1.54,0-.5,1.04-.99,2.07-1.49,3.11-.02-1.04-.04-2.08-.05-3.11Z"/><path class="cls-5" d="M308.45,62.14l1.37-3.83,.2,.14c.12,1.28-.58,2.46-.88,3.68-.23,0-.46,.01-.69,.02Z"/><path class="cls-5" d="M236.9,67.96c-1.27,0-2.54,0-3.8,0,1.27,0,2.54,0,3.8,0Z"/><path class="cls-5" d="M270.77,16.16c.47,.54,.93,1.08,1.4,1.62,.02,.48,.03,.96,.05,1.44-.48-1.02-.96-2.04-1.45-3.06Z"/><path class="cls-5" d="M310.04,59.24c0-.26-.02-.53-.03-.79,.43-.54,.86-1.07,1.28-1.61-.42,.8-.84,1.6-1.26,2.4Z"/><path class="cls-5" d="M308.45,62.14c.23,0,.46,0,.69-.02l-.68,1.51c-.28,0-.55,0-.83,0l.82-1.49Z"/><path class="cls-5" d="M246.79,20.11c-.42-.34-.85-.69-1.27-1.03,.09-.09,.18-.18,.27-.26,.34,.43,.67,.86,1.01,1.3h0Z"/><path class="cls-5" d="M242.93,67.95h-2.31c.77,0,1.54,0,2.31,0Z"/><path class="cls-5" d="M237.64,25.8c-.51,0-1.01,0-1.52,0,.51,0,1.01,0,1.52,0Z"/><path class="cls-5" d="M313.51,48.49l.44-1.43c.17,0,.35,0,.52,0-.32,.48-.64,.95-.96,1.43Z"/><path class="cls-5" d="M234.64,25.78c-.27,.03-.53,.06-.8,.1,.27-.03,.53-.06,.8-.1Z"/><path class="cls-5" d="M242.17,25.79c-.27,0-.53,0-.8,0,.27,0,.53,0,.8,0Z"/><path class="cls-5" d="M264.71,13.98c-.03,.3-.05,.6-.08,.9-.28-.23-.55-.46-.83-.69,.3-.07,.6-.14,.91-.21Z"/><path class="cls-5" d="M249.45,16.18c-.19,.21-.38,.42-.56,.63,.19-.21,.38-.42,.56-.63Z"/><path class="cls-5" d="M263.21,14c0-.23-.01-.46-.03-.69l.6,.87h-.32s-.25-.18-.25-.18Z"/><path class="cls-5" d="M314.47,47.06c-.17,0-.35,0-.52,0,.13-.27,.25-.54,.38-.81,.05,.27,.09,.54,.14,.81Z"/><path class="cls-5" d="M243.53,93.8c1.02,1.04,2.03,2.08,3.05,3.12-1.02-1.04-2.03-2.08-3.05-3.12Z"/><path class="cls-5" d="M289.21,100.04h2.2l.09,.79c-.75,.09-1.49,.17-2.24,.26-.02-.35-.04-.7-.06-1.05Z"/><path class="cls-5" d="M297.85,91.48c0-1-.01-2-.02-3,1.81,.99,1.8,1.99,.02,3Z"/><path class="cls-5" d="M296.23,95.19c.48-.87,.96-1.73,1.43-2.6-.48,.87-.96,1.73-1.43,2.6Z"/><path class="cls-5" d="M299.41,84.67l-1.56,1.54h-.01c.51-.53,1.02-1.05,1.54-1.57l.03,.03Z"/><path class="cls-5" d="M297.8,88.51c-.24-.76-.49-1.52-.73-2.28,.26-.01,.52-.03,.78-.04,0,0,.01,.01,.01,.01-.02,.77-.04,1.54-.06,2.3Z"/><path class="cls-5" d="M295.94,84.42c-.27-.27-.55-.54-.82-.81,.27,.27,.55,.54,.82,.81Z"/><path class="cls-5" d="M279.74,25.36c.77-1.04,1.54-2.09,2.31-3.13,3.17,1.04,6.49,.68,9.78,.74,.51,.5,1.02,1,1.52,1.5,.49-.49,.97-.99,1.46-1.48,1.01,0,2.03-.02,3.05-.01,.19,.4,.38,.8,.57,1.19,.31-.4,.62-.79,.93-1.19,1.57,0,3.14,.2,4.5-.73-.69-1.97,1.54-2.55,2.74-3.72,4.06,4.86,9.67,4.24,15.32,3.76,.16,.64,.32,1.28,.48,1.92,.2,0,.39,0,.59,0,.15-.65,.31-1.29,.46-1.94,.5,0,.99,0,1.49,0,.25,2.29-.32,4.51-.7,6.75-.77-.01-1.55-.02-2.32-.03-.48-1.01-.97-2.01-1.45-3.02-3.65-.07-7.3-.04-10.95-.08,.35-1.3,.89-2.83-1.29-2.7-.36,.02-.63,1.76-.93,2.7-9.16-.03-18.44,.51-27.54-.54Z"/><path class="cls-5" d="M285.83,21.45c5.98-.06,11.96-.11,17.94-.17,.02,.32,.05,.65,.07,.97-5.86,1.77-12.61,.22-18.77,.69,.25-.5,.5-1,.76-1.5Z"/><path class="cls-5" d="M297.7,14.86c-.84-.76-1.67-1.51-2.51-2.27,1.81-.33,2.93,.12,2.51,2.27Z"/><path class="cls-5" d="M288.13,18.5c-.76,.77-1.52,1.55-2.28,2.32-.23-1.75,.51-2.54,2.28-2.32Z"/><path class="cls-5" d="M299.23,16.52c-.51-.55-1.02-1.09-1.53-1.64,2.39-1.21,1.46,.68,1.53,1.64Z"/><path class="cls-5" d="M303.05,20.14c-.28-.27-.57-.55-.85-.82,.28,.27,.57,.55,.85,.82Z"/><path class="cls-5" d="M302.27,19.38c-.31-.27-.63-.55-.94-.82,.31,.27,.63,.55,.94,.82Z"/><path class="cls-5" d="M321.91,29c.77,.01,1.55,.02,2.32,.03-1.19,2.55-1.53,5.65-3.81,7.49-.51,0-1.02,0-1.53-.01-.7-5.4,2.18-1.1,1.48-6.81l.02,.04c.5-.25,1.01-.5,1.51-.74Z"/><path class="cls-5" d="M325.01,24.58c-.03-.77-.05-1.53-.08-2.3,.45,.3,.9,.59,1.35,.89-.42,.47-.85,.94-1.27,1.41Z"/><path class="cls-5" d="M323.45,22.28c-.15,.65-.31,1.29-.46,1.94-.2,0-.39,0-.59,0-.16-.64-.32-1.28-.48-1.92,.51,0,1.02-.02,1.53-.02Z"/><path class="cls-5" d="M318.9,22.31c-1.27,.21-2.54,.42-3.8,.63,1.27-.21,2.54-.42,3.8-.63Z"/><path class="cls-5" d="M320.42,36.53c.49-.5,.99-.99,1.48-1.49,0,.48-.07,.97-.03,1.45-.45,.04-.91,.09-1.36,.13l-.09-.09Z"/><path class="cls-5" d="M320.51,36.62c.45-.04,.91-.09,1.36-.13-.5,1.27-.99,2.55-1.49,3.82,.04-1.23,.08-2.46,.13-3.69Z"/><path class="cls-5" d="M318.83,34.1c.5,3.16-1.7,5.76-2.78,8.6-.06-.32-.12-.65-.17-.97,.98-2.54,1.97-5.09,2.95-7.63Z"/><path class="cls-5" d="M307.28,25.91c.31-.94,.57-2.68,.93-2.7,2.18-.13,1.64,1.39,1.29,2.7-.74,0-1.48,0-2.22,0Z"/><path class="cls-5" d="M321.91,29c-.5,.25-1.01,.5-1.51,.74,.02-1.25,.04-2.51,.06-3.76,.48,1.01,.97,2.01,1.45,3.02Z"/><path class="cls-5" d="M320.37,29.7c-.19,1.38,.92,3.23-1.39,3.83,.46-1.28,.93-2.55,1.39-3.83Z"/><path class="cls-5" d="M317.42,25.95c.5,0,1,0,1.5,0-.5,0-1,0-1.5,0Z"/><path class="cls-5" d="M291.82,22.97c2.01,0,4.01,0,6.02,0-1.01,0-2.02,.01-3.03,.02-.49,.49-.97,.99-1.46,1.48-.51-.5-1.02-1-1.52-1.5Z"/><path class="cls-5" d="M293.35,24.47c.49-.49,.97-.99,1.46-1.48-.49,.49-.97,.99-1.46,1.48Z"/><path class="cls-5" d="M297.86,22.98c.5,0,1,0,1.49,0-.31,.4-.62,.79-.93,1.19-.19-.4-.38-.8-.57-1.19Z"/><path class="cls-5" d="M302.35,22.97c.5-.24,1-.47,1.5-.71-.5,.24-1,.47-1.5,.71Z"/><text class="cls-4" transform="translate(6.28 89.48)"><tspan x="0" y="0">Vi</tspan><tspan class="cls-10" x="89.48" y="0">v</tspan><tspan x="141.73" y="0">a</tspan></text><text class="cls-3" transform="translate(0 195.37)"><tspan class="cls-7" x="0" y="0">l</tspan><tspan x="26.96" y="0">a </tspan><tspan class="cls-15" x="99.54" y="0">c</tspan><tspan x="143.06" y="0">ar</tspan><tspan class="cls-12" x="229.63" y="0">t</tspan><tspan x="263.03" y="0">e!</tspan></text><text class="cls-6" transform="translate(3.43 249.51)"><tspan class="cls-8" x="0" y="0">H</tspan><tspan class="cls-2" x="16.63" y="0">ea</tspan><tspan class="cls-8" x="43.4" y="0">lt</tspan><tspan class="cls-13" x="60.27" y="0">h</tspan><tspan class="cls-9" x="74.53" y="0">y</tspan><tspan class="cls-8" x="85.84" y="0">. Unh</tspan><tspan class="cls-2" x="143.76" y="0">ea</tspan><tspan class="cls-8" x="170.53" y="0">lt</tspan><tspan class="cls-13" x="187.4" y="0">h</tspan><tspan class="cls-9" x="201.66" y="0">y</tspan><tspan class="cls-8" x="212.97" y="0">. Wha</tspan><tspan class="cls-11" x="274.12" y="0">t</tspan><tspan class="cls-2" x="282.92" y="0">e</tspan><tspan class="cls-1" x="296.4" y="0">v</tspan><tspan class="cls-8" x="308.64" y="0">e</tspan><tspan class="cls-14" x="322.26" y="0">r</tspan><tspan class="cls-8" x="329.89" y="0">.</tspan></text></g></g></svg>