<?xml version="1.0" encoding="UTF-8"?><svg id="Warstwa_2" xmlns="http://www.w3.org/2000/svg" viewBox="0 0 113.16 121.89"><defs><style>.cls-1{fill:#00ba3f;}</style></defs><g id="Warstwa_1-2"><g><path class="cls-1" d="M6.9,27.96c-.88-2.35-1.67-4.48-2.4-6.41,.1-.91,.46-1.5,1.05-1.7,6.22-2.18,12.37-4.58,18.6-6.24,2.13,1.88,1.94,4.49,3.43,6.53,2.76,.84,5.79,1.46,8.88,2,.77-1.16,.68-2.45,.86-3.64C39.08,6.81,48.8-.76,61.09,.06c10.64,.71,19.33,10.36,19.43,21.45,.04,4.57-.87,9.1-.59,14.08,5.64-.51,10.74,1.15,15.37,4.72,.28-7.07,.95-8.58,5.28-12.17,2.14,3.29,2.78,6.77,1.65,10.83,2.08-.5,3.76-1.5,5.6-1.2,1.72,.28,3.54,.24,5.33,1.37-2.65,5.15-7.12,6.77-12.93,6.63,3.36,5.15,3.38,10.62,3.36,16.15-.06,17.97-.02,35.95-.03,53.92,0,.83,.06,1.67-.04,2.49-.27,2.1-1.56,3.3-3.71,3.5-.82,.08-1.66,.04-2.49,.04-28.47,0-56.93,0-85.4,0-.73,0-1.46,.03-2.18-.02-2.45-.18-3.74-1.45-3.97-3.92-.08-.82-.02-1.66-.02-2.49,0-18.91-.01-37.82,.02-56.73,0-1.8-.26-3.45-1.02-5.11-1.63-3.58-3.1-7.23-4.74-11.1,2.25-4.74,4.55-9.59,6.9-14.55Zm31.73,30.55c2.64,2.24,5.24,4.43,7.91,6.69,2.75-2.33,5.35-4.53,7.99-6.77,3.09,1.9,5.33,4.7,8.33,6.68,2.7-2.28,5.3-4.48,7.78-6.59,1.61,.4,2.22,2.16,3.98,2.21,.08-.63,.16-1.12,.19-1.61,.39-6.11,.89-12.22,1.12-18.33,.25-6.64,1.14-13.26,.94-19.91-.22-7.02-3.51-12.34-9.8-15.47-6.26-3.12-12.5-2.59-18.29,1.3-5.41,3.63-7.76,8.98-8.11,15.35-.36,6.53-.79,13.05-1.16,19.58-.32,5.59-.58,11.18-.88,16.87ZM3.91,42.67c3.27,7.46,6.54,14.9,9.85,22.46,3.21-2.2,5.5-4.92,8.49-6.81,2.74,2.32,5.34,4.51,7.99,6.75,1.58-1.42,3.26-2.47,4.53-4.1,.34-3.47,.06-7,.71-10.62-3.73-5.67-7.48-11.36-11.14-16.94-4.95-1.14-9.66-2.21-14.42-3.31-2.06,4.31-4.02,8.4-6.01,12.57Zm91.35,22.37c3.99-3.07,4.18-3.3,4.49-5.29,1.43-9.15-4.96-18.47-14.02-20.22-1.95-.38-4.05-1.26-6.18,.21-.47,7.99-.94,16.05-1.4,24.12-.03,.46,.41,.68,.93,1.12,2.25-1.88,4.53-3.8,6.86-5.75-1.07-.83-2.25-1.38-2.22-2.84,1.69-2.91,2.92-2.94,4.72-.14,.2,.86-.77,1.48-.43,2.58,2.29,1.96,4.72,4.05,7.25,6.21ZM36.88,25.96c-3.87-.75-7.27-2.32-10.73-2.06-3.44,.26-6.64,2.02-9.71,3.95,3.39,.82,6.78,1.64,10.2,2.47,2.88,4.37,5.7,8.67,8.53,12.97,.2-.06,.4-.11,.6-.17,.36-5.64,.73-11.29,1.11-17.16Zm-26.7-.33c4.42-1.64,8.91-3.3,13.44-4.98-.29-1.09-.35-2.02-1.45-2.66-4.45,1.37-8.97,2.88-13.45,4.72,.52,1.11,.58,2.08,1.45,2.92Z"/><path class="cls-1" d="M43.28,41.63c7.63-4.17,23.71,1.42,27.58,9.56-.1,1.05-.7,1.64-2.07,1.91-6.2-7.55-14.54-9.9-24.85-8.87-.86-.22-1.17-1.22-.66-2.6Z"/><path class="cls-1" d="M69.64,36.99c-6.93-7.71-15.59-9.04-24.95-7.43q-.71-1.2-.83-2.42c.18-.2,.34-.49,.59-.64,1.65-1.01,3.56-1.21,5.39-1.25,6.25-.14,12.11,1.37,17.44,4.7,1.59,1,3,2.26,4.05,3.83,1.11,1.68,.74,2.37-1.69,3.22Z"/><path class="cls-1" d="M22.01,53.95c-2.37,1.99-4.57,3.84-7.09,5.95-1.94-3.94-3.74-7.59-5.75-11.68,4.56-2.04,9.02-4.03,13.79-6.17,3.2,5.54,6.34,10.96,9.44,16.34-.3,1.25-1.49,1.47-2.22,2.46-2.7-2.28-5.29-4.46-8.19-6.91Z"/><path class="cls-1" d="M96.61,53.92c-.26,1.31-.96,2.29-2.41,2.28-1.44,0-2.15-.98-2.4-2.3,.16-1.49,1.06-2.17,2.41-2.4,1.35,.24,2.25,.92,2.4,2.41Z"/><path class="cls-1" d="M85.22,45.52c1.47-.83,2.74-.97,3.68,.4,.63,.92,.54,1.97-.24,2.84-.81,.9-1.87,.94-2.81,.4-1.46-.85-1.34-2.14-.63-3.64Z"/></g></g></svg>