<?xml version="1.0" encoding="UTF-8"?><svg id="Warstwa_2" xmlns="http://www.w3.org/2000/svg" viewBox="0 0 127.34 115.2"><defs><style>.cls-1{fill:#00ba3f;}</style></defs><g id="Warstwa_1-2"><g><path class="cls-1" d="M37.63,8.54c1.17-.84,3.87-2.54,7.73-2.88,3.3-.3,5.89,.54,7.21,1.06h0c1.23,2.53,3.29,3.68,6.08,3.56h0c.58,.58,1.16,1.17,1.74,1.76l.02-.03c.51,.87,1.7,1.56,1.75,2.6,3.17,5.95,.76,8.57,8.73,7.94,0,.9-.01,1.8-.02,2.7-2.03,0-4.06,0-6.09,.01,.23-3.68-2.54-2.49-4.43-2.74,.52-4.62-.63-8.4-5.24-10.45-.35,.08-.7,.16-1.05,.24l.07-.27-.09,.26c-.23-.34-.46-.67-.7-1.01-7.71-2.34-15.56,.34-19.07,7.91-.39-.5-.78-1.01-1.17-1.51l1.17,1.5c-.59,3.04,1.16,3.76,3.49,3.31,5.79,.07,11.58,.03,17.38,.03l-.02,2.7c-11.81,1.65-23.98-.06-35.9,.67-2.11,12.92-.34,26.41-.89,39.53,0,5.42,.63,6.05,6.01,6.05,26.5-.01,53,.04,79.49-.12,6.27-4.42,4.98-14.77,9.15-20.84-.05-.31-.11-.63-.16-.94h0c.31,0,.62,0,.94,0,.3,.32,.6,.63,.9,.95,.19,2.64-.19,5.3,.05,7.92v-.02c-3.32,4.47-4.08,16.72-10.25,16.47-29.27,.18-58.63-.57-87.86,.17l.03-.03c-4.04-20.29-.7-41.64-1.75-62.32,0-2.1,.6-4.8-3.15-3.97-3.82-1.23-7.64-2.47-11.72-3.79C.57,3.19,.99,1.88,1.59,0,6.24,2.6,18.83,3.57,19.05,9.06c1.18,4.2-2.95,12.3,4,12.18,5.81,.82,7.01-3.25,9.26-7.52h-.03c2-1.5,3.63-3.38,5.35-5.17Z"/><path class="cls-1" d="M51.52,107.19c-6.83,13.04-25.04,9.03-27.5-4.52-2.25-12.28,13.63-22.71,23.3-13.63,.21,0,.62,0,.83,0,.59,.58,1.18,1.17,1.77,1.76-.01,.27-.01,.54,0,.8,.6,.89,1.2,1.78,1.8,2.66v-.05c-.07,4.33-.14,8.65-.21,12.98Zm-21.05-2.29c8.15,12.13,24.14-.45,15.24-11.07-7.2-7.72-20.91,.84-15.24,11.07Z"/><path class="cls-1" d="M90.12,113.53c-17.08,8.65-30.49-18.72-11.75-26.42,9.17,.19,12.19-2.16,17.06,7.14-.6,.6-1.19,1.21-1.79,1.81-.3,.02-.6,.03-.9,.05-6.29-11.88-24.42-1.26-16.52,10.04,3.36,6.32,15.99,4.38,17.43-3.95,2.07-1.18,2.08-2.34-.02-3.49l-.04,.05c.02-.89,.04-1.79,.07-2.68l1.81-1.79c.56,.01,1.12,.04,1.68,.04-.1,6.04,1.61,12.27-3.44,16.7l.02-.03c-1.07,1.01-2.38,1.71-3.6,2.53Zm-6.53-1.37c.02,.41,.04,.82,.07,1.22,.87-.1,1.74-.2,2.61-.31l-.11-.92h-2.56Z"/><path class="cls-1" d="M79.11,13.91c15.24-16.87,9.43-10.28,25.13,3.35-1.38,.55-2.48,1.89-3.75,2.72-.6-.56-1.19-1.12-1.78-1.69,0,0,.08,.07,.08,.07-1.24-1.04-2.37-2.2-3.53-3.33-.08-1.11,1-3.3-1.77-1.9,.07-7.75-8.65,2.73-11.14,4.2-3.78-.65-1.92,3.24-3.54,5.18-1.18-.28-2.35-.56-3.53-.84-.3-.32-.61-.64-.91-.96l1.66-3.55s-.01,.01-.01,.01c1.04-1.09,2.07-2.17,3.11-3.26Z"/><path class="cls-1" d="M16.59,75.11c29.23-.75,58.59,0,87.86-.18,6.27,.18,6.86-11.95,10.25-16.47-2.4,4.36-2.99,16.87-8.57,16.98-29.83-.14-59.73,.55-89.55-.34Z"/><path class="cls-1" d="M11.72,8.78c3.75-.82,3.15,1.87,3.16,3.97,1.04,20.68-2.29,42.03,1.74,62.32h-1.76c-2.94-21.63,1.84-44.32-2.13-65.67-.34-.21-.67-.42-1.01-.63Z"/><path class="cls-1" d="M12.73,9.4c3.97,21.35-.81,44.04,2.13,65.66-3.97-21.22,1.01-44.11-2.13-65.66Z"/><path class="cls-1" d="M108.48,20.86c20.79,.44,22.82-4.61,13.69,17.35-.2,0-.41,0-.61-.03,.51-4.71,3.51-8.88,3.67-13.77,.49-.55,.98-1.09,1.48-1.64-.52-.34-1.04-.69-1.56-1.03-5.74-.42-11.34,1.57-16.83-.63,0,0,.17-.24,.17-.24Z"/><path class="cls-1" d="M121.56,38.18c.2,.02,.41,.03,.61,.03-2.36,6.43-4.71,12.87-7.07,19.3-.17,.06-.35,.09-.53,.09,.23-6.87,5.15-12.75,7.01-19.35,0,0-.02-.07-.02-.07Z"/><path class="cls-1" d="M64.08,19.43c-.24-.97-.29-1.95-.3-2.94l.3-.25c1.96,3.93,5.7,2.51,8.82,2.95-.13,.47-.26,.95-.38,1.42-2.9,.18-5.97,1.63-8.45-1.19Z"/><path class="cls-1" d="M51.52,107.19c.07-4.33,.14-8.65,.21-12.98,2.82,4.37,2.5,8.7-.21,12.98Z"/><path class="cls-1" d="M51.7,6.86c-3.33-.06-6.66,0-9.98-.3,3.24-1.94,6.55-1.96,9.91-.34,.04,.21,.06,.43,.07,.64Z"/><path class="cls-1" d="M97.3,105.95c-.05-3.87-.1-7.75-.15-11.62,2.56,3.84,2.66,7.71,.15,11.62Z"/><path class="cls-1" d="M95.43,94.25c-1.18-1.72-2.36-3.45-3.54-5.17,.02-.27,.02-.55,0-.82,1.75,2.03,3.49,4.05,5.24,6.08-.55-.01-1.1-.03-1.66-.04l-.04-.04Z"/><path class="cls-1" d="M89.62,87.13c-3.75,0-7.5-.01-11.25-.02,3.75-2.33,7.5-2.33,11.25,.02Z"/><path class="cls-1" d="M58.64,10.29c-2.79,.11-4.84-1.03-6.08-3.57,2.44-.15,4.1,1.56,6.01,2.82,.02,.25,.05,.5,.07,.75Z"/><path class="cls-1" d="M93.71,111.03c1.12-1.49,2.25-2.98,3.37-4.47-1.12,1.49-2.25,2.98-3.37,4.47Z"/><path class="cls-1" d="M37.63,8.54c-1.14,1.19-2.27,2.38-3.41,3.57-.27-.03-.53-.04-.8-.03,1.4-1.18,2.81-2.36,4.21-3.54Z"/><path class="cls-1" d="M104.23,17.26c1.42,1.2,2.83,2.4,4.25,3.6l-.17,.24c-1.5-1.24-2.99-2.48-4.49-3.72,.12-.11,.26-.15,.42-.13Z"/><path class="cls-1" d="M79.11,13.91c-1.04,1.09-2.07,2.17-3.11,3.26,1.04-1.09,2.07-2.17,3.11-3.26Z"/><path class="cls-1" d="M72.53,20.62c.13-.47,.26-.95,.38-1.42,1.03-.68,2.07-1.36,3.1-2.05-.55,1.18-1.11,2.37-1.66,3.55-.55,.09-1.09,.19-1.64,.28l-.19-.37Z"/><path class="cls-1" d="M41.72,6.56c.97,.07,1.94,.14,2.91,.21-1.21,.56-2.43,1.13-3.64,1.69,.04-.56,.09-1.11,.13-1.67,.16-.18,.35-.26,.59-.23Z"/><path class="cls-1" d="M41.13,6.79c-.04,.56-.09,1.11-.13,1.67-.99-.06-1.98-.12-2.97-.18,1.03-.5,2.07-.99,3.1-1.49Z"/><path class="cls-1" d="M90.12,113.53c.88-.57,1.76-1.13,2.64-1.7-.88,.57-1.76,1.13-2.64,1.7Z"/><path class="cls-1" d="M51.73,94.26c-.6-.89-1.2-1.78-1.8-2.66,.54,.38,1.07,.76,1.61,1.15,.07,.51,.13,1.01,.2,1.52Z"/><path class="cls-1" d="M47.32,89.04c-.89-.59-1.78-1.19-2.67-1.78,.51,.06,1.03,.11,1.54,.17,.38,.54,.75,1.08,1.13,1.61Z"/><path class="cls-1" d="M62.16,14.62c.05-.3-.03-.55-.26-.75,.02-.3,.04-.59,.06-.89,.71,1.09,1.42,2.18,2.13,3.27,0,0-.3,.25-.3,.25-.54-.63-1.08-1.25-1.63-1.88Z"/><path class="cls-1" d="M32.31,13.72c-.53,.9-1.07,1.8-1.6,2.7,.53-.9,1.07-1.8,1.6-2.7Z"/><path class="cls-1" d="M91.89,88.26c.02,.27,.02,.55,0,.82-.58-.6-1.16-1.2-1.73-1.8,.58,.32,1.15,.65,1.73,.97Z"/><path class="cls-1" d="M33.42,12.08c.27-.01,.53,0,.8,.03-.65,.53-1.29,1.06-1.94,1.59,.38-.54,.76-1.08,1.14-1.63Z"/><path class="cls-1" d="M61.96,12.98c-.02,.3-.04,.59-.06,.89-.5-.62-1-1.23-1.49-1.85,.52,.32,1.04,.64,1.55,.96Z"/><path class="cls-1" d="M47.32,89.04c-.38-.54-.75-1.08-1.13-1.61,.65,.54,1.3,1.07,1.96,1.61-.21,0-.62,0-.83,0Z"/><path class="cls-1" d="M49.91,90.78c-.58-.58-1.16-1.15-1.75-1.73,.58,.58,1.16,1.15,1.75,1.73Z"/><path class="cls-1" d="M51.53,92.74c-.54-.38-1.07-.76-1.61-1.15-.01-.27-.01-.54,0-.8,.54,.65,1.07,1.3,1.61,1.95Z"/><path class="cls-1" d="M60.38,12.04l-1.74-1.77c.38,.22,.76,.44,1.14,.66l-.06-.07c.22,.39,.44,.78,.66,1.17Z"/><path class="cls-1" d="M51.7,6.86c0-.22-.03-.43-.07-.64,.31,.17,.63,.34,.94,.5-.29,.05-.58,.09-.87,.14Z"/><path class="cls-1" d="M114.57,57.6c.18,0,.36-.04,.53-.09l-.4,.97c-.04-.29-.08-.59-.13-.88Z"/><path class="cls-1" d="M59.72,10.87l.06,.07-.06-.07Z"/><path class="cls-1" d="M92.77,111.82c.32-.27,.63-.55,.95-.82-.32,.27-.63,.55-.95,.82Z"/><path class="cls-1" d="M100.67,26.07c-27.05,.89-54.02,.22-81.11,.5-.69,13.17-.05,25.95-.36,39.08-.04,3.1,.66,4.35,4.09,4.33,27.57-.15,55.14-.15,82.7-.15-.72,.54-1.44,1.56-2.16,1.56-26.5,.16-53,.1-79.49,.12-5.38,0-6.01-.63-6.01-6.05,.55-13.13-1.22-26.61,.89-39.53,27.22-.39,54.24-.5,81.46,.15Z"/><path class="cls-1" d="M34.2,20.62h24.8c.38-3.39-2.06-5.31-3.98-7.5,.03-.35,.06-.7,.09-1.04,4.61,2.05,5.76,5.83,5.24,10.45-7.53,.04-15.07,.07-22.6,0-1.42-.02-3.44,.71-3.55-1.9Z"/><path class="cls-1" d="M119.85,42.69c-1.14,2.63-2.27,5.25-3.41,7.88-.6,0-1.2,0-1.79,0-.3-.32-.6-.63-.9-.95,.76-4.03,2.68-7.62,4.37-11.32,.59,0,1.18,0,1.78,.01,0,0,.11,.1,.11,.1-.05,1.43-.1,2.86-.15,4.29Z"/><path class="cls-1" d="M55.13,22.56c2.77,.61,10.18-1.99,9.65,2.71-3.22,0-6.44,0-9.66-.01,0-.9,.01-1.8,.02-2.7Z"/><path class="cls-1" d="M107.57,63.63c1.25-3.37,2.49-6.74,3.74-10.11-1.14,3.43-.93,7.56-3.51,10.27l-.23-.16Z"/><path class="cls-1" d="M64.08,19.43c2.47,2.82,5.55,1.37,8.45,1.19l.19,.37c-.61,.52-1.22,1.04-1.83,1.56-2.52-.48-6.12,1.38-6.8-3.12Z"/><path class="cls-1" d="M70.89,22.55c.61-.52,1.22-1.04,1.83-1.56,.55-.09,1.09-.19,1.64-.28,.3,.32,.61,.64,.91,.96-.89,1.22-1.79,2.43-2.68,3.65-.57-.02-1.14-.04-1.71-.06l.02-2.7Z"/><path class="cls-1" d="M53.37,12.1l-7.89-1.55s-.04-.35-.04-.35c2.63,.36,5.27,.73,7.9,1.09,.02,.27,.03,.53,.03,.8Z"/><path class="cls-1" d="M114.81,45.48c-.36,1.37-.71,2.75-1.07,4.12-.31,0-.62,0-.94,0,.6-1.75,1.2-3.51,1.8-5.26,.07,.38,.13,.75,.2,1.13Z"/><path class="cls-1" d="M45.44,10.21s.04,.35,.04,.35c-1.46,.43-2.93,.86-4.39,1.29,1.45-.55,2.9-1.09,4.35-1.64Z"/><path class="cls-1" d="M114.65,50.56c.6,0,1.2,0,1.79,0-.58,1.2-1.16,2.41-1.73,3.61-.02-1.21-.04-2.41-.06-3.62Z"/><path class="cls-1" d="M105.97,68.09l1.59-4.46,.23,.16c.14,1.49-.68,2.86-1.02,4.28-.27,0-.53,.01-.8,.02Z"/><path class="cls-1" d="M22.77,74.85c-1.47,0-2.95,0-4.42,0,1.47,0,2.95,0,4.42,0Z"/><path class="cls-1" d="M62.16,14.62c.54,.63,1.08,1.25,1.63,1.88,.02,.56,.04,1.12,.06,1.68-.56-1.19-1.12-2.37-1.68-3.56Z"/><path class="cls-1" d="M107.83,64.71c-.01-.31-.02-.61-.03-.92,.5-.62,1-1.24,1.49-1.87-.49,.93-.97,1.86-1.46,2.79Z"/><path class="cls-1" d="M105.97,68.09c.27,0,.53-.01,.8-.02l-.79,1.76c-.32,0-.64,0-.97-.01l.95-1.73Z"/><path class="cls-1" d="M34.27,19.21c-.49-.4-.99-.8-1.48-1.2,.1-.1,.21-.2,.31-.31,.39,.5,.78,1.01,1.17,1.51h0Z"/><path class="cls-1" d="M29.78,74.84h-2.69c.9,0,1.79,0,2.69,0Z"/><path class="cls-1" d="M23.63,25.82c-.59,0-1.18,0-1.77,0,.59,0,1.18,0,1.77,0Z"/><path class="cls-1" d="M111.86,52.21l.51-1.66c.2,0,.4,0,.61,0-.37,.56-.74,1.11-1.11,1.67Z"/><path class="cls-1" d="M20.14,25.81c-.31,.04-.62,.07-.93,.11,.31-.04,.62-.07,.93-.11Z"/><path class="cls-1" d="M28.9,25.82c-.31,0-.62,0-.92,0,.31,0,.62,0,.92,0Z"/><path class="cls-1" d="M55.11,12.08c-.03,.35-.06,.7-.09,1.04-.32-.27-.64-.54-.96-.8,.35-.08,.7-.16,1.05-.24Z"/><path class="cls-1" d="M37.37,14.64c-.22,.25-.44,.49-.65,.74,.22-.25,.44-.49,.65-.74Z"/><path class="cls-1" d="M53.37,12.1c0-.27-.01-.53-.03-.8l.7,1.01h-.37s-.3-.21-.3-.21Z"/><path class="cls-1" d="M112.97,50.55c-.2,0-.4,0-.61,0,.15-.32,.3-.63,.44-.95,.05,.31,.11,.63,.16,.94Z"/><path class="cls-1" d="M30.48,104.9c1.18,1.21,2.36,2.42,3.55,3.63-1.18-1.21-2.36-2.42-3.55-3.63Z"/><path class="cls-1" d="M83.6,112.16h2.56l.11,.92c-.87,.1-1.74,.2-2.61,.31-.02-.41-.04-.82-.07-1.22Z"/><path class="cls-1" d="M93.65,102.2c0-1.16-.01-2.33-.02-3.49,2.1,1.15,2.09,2.32,.02,3.49Z"/><path class="cls-1" d="M91.77,106.52c.56-1.01,1.11-2.02,1.67-3.02-.56,1.01-1.11,2.02-1.67,3.02Z"/><path class="cls-1" d="M95.46,94.29l-1.81,1.79h-.01c.6-.62,1.19-1.22,1.79-1.82l.04,.04Z"/><path class="cls-1" d="M93.59,98.75c-.28-.88-.57-1.76-.85-2.65,.3-.02,.6-.03,.9-.05,0,0,.01,.01,.01,.01-.02,.89-.04,1.79-.07,2.68Z"/><path class="cls-1" d="M91.42,93.99c-.32-.32-.64-.63-.96-.95,.32,.32,.64,.63,.96,.95Z"/><path class="cls-1" d="M72.58,25.32c.89-1.22,1.79-2.43,2.68-3.65,3.69,1.21,7.55,.79,11.37,.86,.59,.58,1.18,1.16,1.77,1.75,.57-.57,1.13-1.15,1.7-1.72,1.18,0,2.36-.02,3.54-.01,.22,.46,.44,.93,.66,1.39,.36-.46,.72-.92,1.08-1.38,1.83-.01,3.65,.23,5.24-.84-.8-2.29,1.79-2.97,3.19-4.32,4.72,5.65,11.25,4.93,17.82,4.37,.19,.75,.37,1.49,.56,2.24,.23,0,.46,0,.69,0,.18-.75,.36-1.5,.53-2.26,.58,0,1.15,0,1.73,0,.29,2.66-.38,5.24-.82,7.85-.9-.01-1.8-.02-2.7-.04-.56-1.17-1.13-2.34-1.69-3.51-4.25-.08-8.49-.05-12.74-.09,.41-1.51,1.04-3.29-1.5-3.13-.42,.03-.73,2.04-1.09,3.14-10.66-.03-21.44,.59-32.03-.63Z"/><path class="cls-1" d="M79.68,20.77c6.96-.06,13.91-.13,20.87-.19,.03,.38,.06,.75,.09,1.13-6.82,2.06-14.66,.25-21.83,.8,.29-.58,.59-1.16,.88-1.74Z"/><path class="cls-1" d="M93.48,13.1c-.97-.88-1.95-1.76-2.92-2.64,2.11-.38,3.41,.13,2.92,2.64Z"/><path class="cls-1" d="M82.34,17.33c-.89,.9-1.77,1.8-2.66,2.7-.27-2.04,.6-2.95,2.66-2.7Z"/><path class="cls-1" d="M95.25,15.04c-.59-.63-1.18-1.27-1.77-1.9,2.77-1.4,1.69,.79,1.77,1.9Z"/><path class="cls-1" d="M99.69,19.24c-.33-.32-.66-.63-.99-.95,.33,.32,.66,.63,.99,.95Z"/><path class="cls-1" d="M98.78,18.36c-.37-.32-.73-.64-1.1-.95,.37,.32,.73,.64,1.1,.95Z"/><path class="cls-1" d="M121.62,29.55c.9,.01,1.8,.02,2.7,.04-1.39,2.97-1.78,6.57-4.43,8.72-.59,0-1.18,0-1.78-.01-.81-6.28,2.53-1.28,1.72-7.92l.03,.05c.59-.29,1.17-.58,1.76-.87Z"/><path class="cls-1" d="M125.23,24.4c-.03-.89-.06-1.78-.09-2.67,.52,.34,1.04,.69,1.56,1.03-.49,.55-.98,1.09-1.48,1.64Z"/><path class="cls-1" d="M123.41,21.73c-.18,.75-.36,1.5-.53,2.26-.23,0-.46,0-.69,0-.19-.75-.37-1.49-.56-2.24,.59,0,1.19-.02,1.78-.03Z"/><path class="cls-1" d="M118.13,21.76c-1.47,.24-2.95,.48-4.42,.73,1.47-.24,2.95-.48,4.42-.73Z"/><path class="cls-1" d="M119.89,38.3c.57-.58,1.15-1.15,1.72-1.73,0,.56-.08,1.13-.03,1.68-.53,.05-1.05,.1-1.58,.15l-.11-.1Z"/><path class="cls-1" d="M120,38.4c.53-.05,1.05-.1,1.58-.15-.58,1.48-1.15,2.96-1.73,4.44,.05-1.43,.1-2.86,.15-4.29Z"/><path class="cls-1" d="M118.04,35.48c.58,3.68-1.97,6.7-3.23,10-.07-.38-.13-.75-.2-1.13,1.14-2.96,2.29-5.91,3.43-8.87Z"/><path class="cls-1" d="M104.61,25.95c.36-1.1,.66-3.11,1.09-3.14,2.54-.15,1.91,1.62,1.5,3.13-.86,0-1.72,0-2.59,0Z"/><path class="cls-1" d="M121.62,29.55c-.59,.29-1.17,.58-1.76,.87,.02-1.46,.04-2.92,.07-4.37,.56,1.17,1.13,2.34,1.69,3.51Z"/><path class="cls-1" d="M119.84,30.36c-.22,1.6,1.07,3.75-1.62,4.46,.54-1.49,1.08-2.97,1.62-4.46Z"/><path class="cls-1" d="M116.4,26c.58,0,1.16,0,1.74,0-.58,0-1.16,0-1.74,0Z"/><path class="cls-1" d="M86.64,22.53c2.33,0,4.67,0,7,0-1.18,0-2.35,.01-3.53,.02-.57,.57-1.13,1.15-1.7,1.72-.59-.58-1.18-1.16-1.77-1.75Z"/><path class="cls-1" d="M88.41,24.28c.57-.57,1.13-1.15,1.7-1.72-.57,.57-1.13,1.15-1.7,1.72Z"/><path class="cls-1" d="M93.65,22.55c.58,0,1.16,0,1.74,0-.36,.46-.72,.92-1.08,1.38-.22-.46-.44-.93-.66-1.39Z"/><path class="cls-1" d="M98.88,22.54c.58-.28,1.16-.55,1.74-.83-.58,.28-1.16,.55-1.74,.83Z"/></g></g></svg>