<?xml version="1.0" encoding="UTF-8"?><svg id="Warstwa_2" xmlns="http://www.w3.org/2000/svg" viewBox="0 0 144.57 144.57"><defs><style>.cls-1{fill:#f6240d;}.cls-2{fill:#fcfcfc;}</style></defs><g id="Warstwa_1-2"><g><circle class="cls-1" cx="72.28" cy="72.28" r="72.28"/><g><path class="cls-2" d="M24.51,41.6c-.88-2.19-1.68-4.16-2.4-5.96,.1-.85,.46-1.39,1.05-1.58,6.23-2.02,12.4-4.26,18.64-5.81,2.13,1.75,1.94,4.17,3.44,6.08,2.77,.78,5.8,1.36,8.9,1.86,.77-1.08,.69-2.28,.86-3.38,1.75-10.88,11.49-17.92,23.81-17.16,10.66,.66,19.37,9.64,19.47,19.95,.04,4.26-.88,8.46-.59,13.1,5.66-.48,10.76,1.07,15.4,4.39,.28-6.57,.95-7.99,5.29-11.32,2.14,3.06,2.79,6.29,1.66,10.07,2.08-.47,3.77-1.39,5.61-1.12,1.72,.26,3.55,.23,5.34,1.28-2.65,4.79-7.14,6.3-12.96,6.17,3.36,4.79,3.39,9.88,3.37,15.03-.07,16.72-.02,33.44-.03,50.16,0,.77,.07,1.56-.04,2.32-.27,1.96-1.56,3.07-3.71,3.26-.83,.07-1.66,.04-2.5,.04-28.52,0-57.05,0-85.57,0-.73,0-1.46,.03-2.19-.02-2.46-.17-3.75-1.34-3.98-3.64-.08-.77-.02-1.55-.02-2.32,0-17.59-.01-35.18,.02-52.77,0-1.67-.26-3.21-1.02-4.75-1.63-3.33-3.11-6.73-4.75-10.33,2.25-4.4,4.56-8.92,6.92-13.53Zm31.79,28.42c2.65,2.08,5.25,4.12,7.93,6.23,2.75-2.16,5.36-4.22,8.01-6.3,3.09,1.77,5.34,4.38,8.35,6.21,2.7-2.12,5.31-4.17,7.8-6.13,1.62,.37,2.22,2.01,3.98,2.06,.08-.58,.16-1.04,.19-1.5,.39-5.68,.89-11.36,1.13-17.05,.26-6.18,1.14-12.33,.94-18.52-.22-6.53-3.52-11.48-9.82-14.39-6.27-2.9-12.52-2.41-18.33,1.21-5.42,3.37-7.78,8.35-8.13,14.28-.36,6.07-.8,12.14-1.16,18.21-.32,5.2-.58,10.4-.88,15.69Zm-34.8-14.74c3.28,6.94,6.55,13.86,9.87,20.89,3.22-2.04,5.52-4.57,8.51-6.33,2.75,2.15,5.35,4.19,8.01,6.28,1.59-1.32,3.27-2.3,4.54-3.81,.34-3.22,.06-6.51,.71-9.88-3.74-5.28-7.49-10.57-11.16-15.76-4.96-1.06-9.68-2.06-14.45-3.07-2.06,4.01-4.03,7.82-6.03,11.69Zm91.54,20.81c3.99-2.85,4.19-3.07,4.5-4.92,1.44-8.51-4.97-17.18-14.05-18.81-1.95-.35-4.05-1.17-6.19,.19-.47,7.43-.95,14.93-1.41,22.44-.03,.43,.41,.63,.93,1.04,2.25-1.75,4.54-3.53,6.87-5.35-1.07-.77-2.25-1.29-2.23-2.64,1.69-2.71,2.93-2.74,4.73-.13,.2,.8-.77,1.37-.43,2.4,2.29,1.83,4.73,3.77,7.26,5.78ZM54.54,39.74c-3.88-.7-7.29-2.16-10.75-1.92-3.45,.24-6.65,1.88-9.73,3.68,3.4,.76,6.79,1.53,10.22,2.3,2.88,4.07,5.71,8.06,8.55,12.06,.2-.05,.4-.11,.6-.16,.37-5.25,.73-10.5,1.11-15.96Zm-26.76-.31c4.43-1.52,8.93-3.07,13.47-4.63-.29-1.01-.35-1.88-1.45-2.47-4.46,1.27-8.99,2.68-13.47,4.39,.52,1.04,.58,1.94,1.45,2.72Z"/><path class="cls-2" d="M60.95,54.31c7.64-3.88,23.76,1.32,27.63,8.89-.1,.98-.7,1.53-2.07,1.77-6.22-7.02-14.57-9.21-24.9-8.25-.86-.21-1.17-1.13-.67-2.42Z"/><path class="cls-2" d="M87.37,50c-6.94-7.17-15.62-8.41-25-6.91q-.71-1.11-.83-2.25c.18-.19,.34-.46,.6-.6,1.66-.94,3.56-1.13,5.4-1.17,6.26-.13,12.14,1.27,17.48,4.38,1.6,.93,3.01,2.1,4.05,3.56,1.12,1.56,.74,2.2-1.7,2.99Z"/><path class="cls-2" d="M39.64,65.78c-2.38,1.85-4.58,3.57-7.1,5.53-1.94-3.66-3.75-7.06-5.76-10.86,4.57-1.9,9.04-3.75,13.82-5.74,3.21,5.15,6.35,10.2,9.46,15.2-.3,1.16-1.49,1.36-2.22,2.29-2.71-2.12-5.3-4.15-8.2-6.43Z"/><path class="cls-2" d="M114.39,65.75c-.26,1.22-.97,2.13-2.42,2.12-1.45,0-2.15-.91-2.4-2.14,.16-1.39,1.06-2.02,2.42-2.23,1.35,.22,2.26,.86,2.41,2.25Z"/><path class="cls-2" d="M102.98,57.93c1.47-.77,2.75-.9,3.69,.38,.63,.86,.55,1.84-.24,2.65-.81,.84-1.87,.88-2.82,.37-1.46-.79-1.34-1.99-.63-3.39Z"/></g></g></g></svg>