<?xml version="1.0" encoding="UTF-8"?><svg id="Warstwa_2" xmlns="http://www.w3.org/2000/svg" viewBox="0 0 144.57 140.46"><defs><style>.cls-1{fill:#f6240d;}.cls-2{fill:#fcfcfc;}</style></defs><g id="Warstwa_1-2"><g><ellipse class="cls-1" cx="72.28" cy="70.23" rx="72.28" ry="70.23"/><g><path class="cls-2" d="M49.97,30.99c1.09-.79,3.62-2.37,7.23-2.7,3.09-.28,5.51,.5,6.74,.99h0c1.15,2.37,3.07,3.44,5.68,3.33h0c.54,.54,1.08,1.09,1.62,1.64l.02-.03c.48,.82,1.59,1.46,1.64,2.43,2.96,5.56,.71,8.01,8.16,7.42,0,.84-.01,1.68-.02,2.53-1.9,0-3.8,0-5.69,0,.22-3.44-2.38-2.32-4.14-2.56,.49-4.32-.59-7.86-4.9-9.77-.33,.07-.66,.15-.99,.22l.07-.25-.09,.25c-.22-.31-.43-.63-.65-.94-7.21-2.19-14.55,.32-17.83,7.39-.36-.47-.73-.94-1.09-1.41l1.09,1.41c-.55,2.85,1.08,3.52,3.26,3.1,5.41,.07,10.83,.03,16.25,.03,0,.84-.01,1.68-.02,2.52-11.04,1.55-22.42-.05-33.57,.62-1.97,12.08-.32,24.69-.83,36.96,0,5.06,.59,5.65,5.62,5.66,24.77-.01,49.55,.04,74.32-.11,5.86-4.13,4.66-13.81,8.55-19.48-.05-.29-.1-.59-.15-.88h0c.29,0,.58,0,.88,0,.28,.3,.56,.59,.84,.89,.18,2.47-.18,4.96,.04,7.41v-.02c-3.1,4.17-3.81,15.63-9.58,15.4-27.37,.17-54.82-.53-82.15,.16l.03-.03c-3.77-18.97-.66-38.94-1.63-58.27,0-1.96,.56-4.48-2.95-3.71-3.57-1.15-7.14-2.31-10.95-3.54,.54-1.68,.93-2.91,1.49-4.67,4.35,2.43,16.12,3.34,16.32,8.47,1.11,3.93-2.76,11.5,3.74,11.39,5.43,.77,6.55-3.04,8.66-7.04h-.03c1.87-1.4,3.39-3.16,5-4.84Z"/><path class="cls-2" d="M62.96,123.22c-6.39,12.19-23.41,8.44-25.71-4.23-2.1-11.48,12.74-21.24,21.79-12.74,.19,0,.58,0,.77,0,.55,.55,1.11,1.09,1.66,1.64-.01,.25-.01,.5,0,.75,.56,.83,1.12,1.66,1.69,2.49v-.05c-.06,4.05-.13,8.09-.19,12.14Zm-19.68-2.14c7.62,11.34,22.57-.42,14.25-10.35-6.73-7.22-19.55,.78-14.25,10.35Z"/><path class="cls-2" d="M99.05,129.15c-15.97,8.09-28.5-17.5-10.99-24.7,8.58,.18,11.39-2.01,15.95,6.68-.56,.56-1.11,1.13-1.67,1.69-.28,.01-.56,.03-.84,.04-5.88-11.1-22.83-1.18-15.44,9.39,3.15,5.91,14.95,4.1,16.29-3.69,1.94-1.1,1.95-2.19-.02-3.27l-.04,.04c.02-.83,.04-1.67,.06-2.5,.56-.56,1.13-1.11,1.69-1.67,.52,.01,1.05,.03,1.57,.04-.1,5.64,1.51,11.47-3.22,15.61v-.03c-.99,.95-2.21,1.6-3.35,2.36Zm-6.1-1.28c.02,.38,.04,.76,.06,1.14,.81-.1,1.62-.19,2.44-.29l-.1-.86h-2.4Z"/><path class="cls-2" d="M88.75,36.01c14.25-15.77,8.81-9.62,23.49,3.13-1.29,.52-2.32,1.77-3.51,2.55-.56-.52-1.11-1.05-1.66-1.58,0,0,.07,.07,.07,.07-1.16-.97-2.21-2.06-3.3-3.11-.08-1.04,.94-3.09-1.66-1.78,.07-7.25-8.09,2.55-10.41,3.92-3.54-.61-1.8,3.03-3.31,4.84-1.1-.26-2.2-.52-3.3-.78-.28-.3-.57-.6-.85-.9,.52-1.11,1.03-2.22,1.55-3.32,0,0-.01,.01-.01,.01,.97-1.02,1.94-2.03,2.9-3.05Z"/><path class="cls-2" d="M30.3,93.23c27.33-.7,54.78,0,82.15-.16,5.86,.17,6.42-11.18,9.58-15.4-2.24,4.07-2.79,15.77-8.01,15.88-27.89-.13-55.85,.51-83.72-.31Z"/><path class="cls-2" d="M25.74,31.21c3.51-.77,2.95,1.75,2.95,3.71,.97,19.34-2.14,39.3,1.63,58.27h-1.64c-2.75-20.22,1.72-41.44-2-61.4-.31-.19-.63-.39-.94-.58Z"/><path class="cls-2" d="M26.69,31.8c3.71,19.96-.76,41.18,2,61.39-3.71-19.84,.95-41.24-2-61.39Z"/><path class="cls-2" d="M116.22,42.5c19.44,.41,21.33-4.31,12.8,16.22-.19,0-.38,0-.57-.03,.48-4.4,3.28-8.3,3.43-12.88,.46-.51,.92-1.02,1.38-1.53-.49-.32-.98-.64-1.46-.97-5.37-.39-10.6,1.47-15.74-.59,0,0,.16-.23,.16-.23Z"/><path class="cls-2" d="M128.44,58.7c.19,.02,.38,.03,.57,.03-2.2,6.02-4.41,12.03-6.61,18.05-.16,.05-.33,.08-.49,.09,.21-6.43,4.82-11.92,6.55-18.09,0,0-.02-.07-.02-.07Z"/><path class="cls-2" d="M74.71,41.17c-.22-.9-.27-1.82-.28-2.75l.28-.23c1.83,3.67,5.33,2.35,8.25,2.76-.12,.44-.24,.89-.36,1.33-2.71,.17-5.58,1.52-7.9-1.11Z"/><path class="cls-2" d="M62.96,123.22c.06-4.05,.13-8.09,.19-12.14,2.64,4.09,2.34,8.13-.19,12.14Z"/><path class="cls-2" d="M63.13,29.42c-3.11-.06-6.23,0-9.33-.28,3.03-1.82,6.12-1.83,9.27-.32,.04,.2,.06,.4,.07,.6Z"/><path class="cls-2" d="M105.76,122.06c-.05-3.62-.09-7.24-.14-10.87,2.39,3.59,2.49,7.21,.14,10.87Z"/><path class="cls-2" d="M104.01,111.12c-1.1-1.61-2.21-3.22-3.31-4.83,.02-.26,.02-.51,0-.77,1.63,1.89,3.26,3.79,4.89,5.68-.52-.01-1.03-.03-1.55-.04l-.03-.03Z"/><path class="cls-2" d="M98.58,104.46c-3.51,0-7.01-.01-10.52-.02,3.51-2.18,7.02-2.18,10.52,.02Z"/><path class="cls-2" d="M69.62,32.62c-2.61,.11-4.53-.96-5.68-3.34,2.28-.14,3.83,1.45,5.62,2.64,.02,.23,.04,.47,.07,.7Z"/><path class="cls-2" d="M102.4,126.81c1.05-1.39,2.1-2.78,3.15-4.18-1.05,1.39-2.1,2.78-3.15,4.18Z"/><path class="cls-2" d="M49.97,30.99c-1.06,1.11-2.13,2.23-3.19,3.34-.25-.03-.5-.04-.75-.03,1.31-1.1,2.62-2.21,3.93-3.31Z"/><path class="cls-2" d="M112.25,39.14c1.32,1.12,2.65,2.24,3.97,3.37l-.16,.23c-1.4-1.16-2.8-2.32-4.2-3.47,.11-.1,.24-.14,.39-.12Z"/><path class="cls-2" d="M88.75,36.01c-.97,1.02-1.94,2.03-2.9,3.05,.97-1.02,1.94-2.03,2.9-3.05Z"/><path class="cls-2" d="M82.6,42.29c.12-.44,.24-.89,.36-1.33,.97-.64,1.93-1.28,2.9-1.91-.52,1.11-1.03,2.22-1.55,3.32-.51,.09-1.02,.17-1.53,.26l-.17-.34Z"/><path class="cls-2" d="M53.8,29.14c.91,.06,1.82,.13,2.72,.19-1.13,.53-2.27,1.05-3.4,1.58,.04-.52,.08-1.04,.12-1.56,.15-.17,.33-.24,.56-.21Z"/><path class="cls-2" d="M53.24,29.35c-.04,.52-.08,1.04-.12,1.56-.93-.06-1.85-.11-2.78-.17,.97-.46,1.93-.93,2.9-1.39Z"/><path class="cls-2" d="M99.05,129.15c.82-.53,1.64-1.06,2.46-1.59-.82,.53-1.64,1.06-2.46,1.59Z"/><path class="cls-2" d="M63.16,111.13c-.56-.83-1.12-1.66-1.69-2.49,.5,.36,1,.71,1.5,1.07,.06,.47,.12,.95,.18,1.42Z"/><path class="cls-2" d="M59.04,106.25c-.83-.56-1.66-1.11-2.5-1.67,.48,.05,.96,.1,1.44,.16,.35,.5,.7,1.01,1.06,1.51Z"/><path class="cls-2" d="M72.91,36.67c.05-.28-.03-.51-.24-.7,.02-.28,.04-.55,.06-.83,.66,1.02,1.33,2.04,1.99,3.06,0,0-.28,.23-.28,.23-.51-.59-1.01-1.17-1.52-1.76Z"/><path class="cls-2" d="M45,35.83c-.5,.84-1,1.68-1.5,2.52,.5-.84,1-1.68,1.5-2.52Z"/><path class="cls-2" d="M100.7,105.52c.02,.26,.02,.51,0,.77-.54-.56-1.08-1.12-1.62-1.68,.54,.3,1.08,.61,1.62,.91Z"/><path class="cls-2" d="M46.04,34.3c.25-.01,.5,0,.75,.03-.6,.5-1.21,.99-1.81,1.49,.36-.51,.71-1.01,1.07-1.52Z"/><path class="cls-2" d="M72.72,35.14c-.02,.28-.04,.55-.06,.83-.47-.58-.93-1.15-1.4-1.73,.48,.3,.97,.6,1.45,.9Z"/><path class="cls-2" d="M59.04,106.25c-.35-.5-.7-1.01-1.06-1.51,.61,.5,1.22,1,1.83,1.51-.19,0-.58,0-.77,0Z"/><path class="cls-2" d="M61.45,107.88c-.54-.54-1.09-1.08-1.63-1.62,.54,.54,1.09,1.08,1.63,1.62Z"/><path class="cls-2" d="M62.97,109.71c-.5-.36-1-.71-1.5-1.07-.01-.25-.01-.5,0-.75,.5,.61,1,1.22,1.5,1.82Z"/><path class="cls-2" d="M71.25,34.26l-1.62-1.65c.35,.21,.71,.41,1.06,.62l-.06-.06c.21,.36,.41,.73,.62,1.09Z"/><path class="cls-2" d="M63.13,29.42c0-.2-.03-.4-.07-.6,.29,.16,.59,.31,.88,.47-.27,.04-.54,.09-.81,.13Z"/><path class="cls-2" d="M121.91,76.86c.17,0,.33-.04,.49-.09l-.38,.91c-.04-.27-.08-.55-.12-.82Z"/><path class="cls-2" d="M70.63,33.17l.06,.06-.06-.06Z"/><path class="cls-2" d="M101.53,127.55c.3-.26,.59-.51,.89-.77-.3,.26-.59,.51-.89,.77Z"/><path class="cls-2" d="M108.91,47.37c-25.29,.83-50.5,.2-75.84,.47-.65,12.31-.05,24.27-.34,36.54-.04,2.9,.62,4.06,3.83,4.05,25.77-.14,51.55-.14,77.33-.14-.67,.51-1.34,1.45-2.02,1.46-24.77,.15-49.55,.09-74.32,.11-5.03,0-5.62-.59-5.62-5.66,.51-12.27-1.14-24.88,.83-36.96,25.45-.37,50.71-.47,76.16,.14Z"/><path class="cls-2" d="M46.77,42.28h23.18c.35-3.17-1.93-4.97-3.72-7.01,.03-.33,.06-.65,.08-.98,4.31,1.91,5.39,5.45,4.9,9.77-7.04,.03-14.09,.07-21.13,0-1.33-.02-3.21,.67-3.32-1.78Z"/><path class="cls-2" d="M126.85,62.92c-1.06,2.45-2.13,4.91-3.19,7.36-.56,0-1.12,0-1.68,0-.28-.3-.56-.59-.84-.89,.71-3.77,2.51-7.13,4.09-10.59,.55,0,1.11,0,1.66,.01,0,0,.1,.1,.1,.1-.05,1.34-.09,2.67-.14,4.01Z"/><path class="cls-2" d="M66.34,44.09c2.59,.57,9.52-1.86,9.02,2.53-3.01,0-6.02,0-9.03-.01,0-.84,.01-1.68,.02-2.52Z"/><path class="cls-2" d="M115.36,82.49c1.17-3.15,2.33-6.3,3.5-9.45-1.06,3.21-.87,7.07-3.29,9.6l-.21-.15Z"/><path class="cls-2" d="M74.71,41.17c2.31,2.63,5.19,1.28,7.9,1.11l.17,.34c-.57,.49-1.14,.97-1.71,1.46-2.36-.45-5.72,1.29-6.36-2.92Z"/><path class="cls-2" d="M81.07,44.09c.57-.49,1.14-.97,1.71-1.46,.51-.09,1.02-.17,1.53-.26,.28,.3,.57,.6,.85,.9-.84,1.14-1.67,2.27-2.51,3.41-.53-.02-1.07-.04-1.6-.06l.02-2.53Z"/><path class="cls-2" d="M64.69,34.32c-2.46-.48-4.92-.96-7.38-1.44,0,0-.04-.33-.04-.33,2.46,.34,4.93,.68,7.39,1.02,.02,.25,.03,.5,.03,.75Z"/><path class="cls-2" d="M122.14,65.53c-.33,1.29-.67,2.57-1,3.86-.29,0-.58,0-.88,0,.56-1.64,1.12-3.28,1.69-4.92,.06,.35,.13,.71,.19,1.06Z"/><path class="cls-2" d="M57.27,32.55s.04,.33,.04,.33c-1.37,.4-2.74,.8-4.11,1.2,1.36-.51,2.71-1.02,4.07-1.53Z"/><path class="cls-2" d="M121.98,70.27c.56,0,1.12,0,1.68,0-.54,1.13-1.08,2.25-1.62,3.38-.02-1.13-.04-2.26-.06-3.39Z"/><path class="cls-2" d="M113.87,86.66c.5-1.39,.99-2.78,1.49-4.17l.21,.15c.13,1.39-.63,2.67-.95,4-.25,0-.5,.01-.75,.02Z"/><path class="cls-2" d="M36.08,92.98c-1.38,0-2.76,0-4.14,0,1.38,0,2.76,0,4.14,0Z"/><path class="cls-2" d="M72.91,36.67c.51,.59,1.01,1.17,1.52,1.76,.02,.52,.04,1.04,.05,1.57-.52-1.11-1.05-2.22-1.57-3.32Z"/><path class="cls-2" d="M115.61,83.5c0-.29-.02-.57-.03-.86,.47-.58,.93-1.16,1.4-1.75-.46,.87-.91,1.74-1.37,2.61Z"/><path class="cls-2" d="M113.87,86.66c.25,0,.5-.01,.75-.02l-.74,1.64c-.3,0-.6,0-.9,0,.3-.54,.59-1.08,.89-1.62Z"/><path class="cls-2" d="M46.83,40.96c-.46-.37-.92-.75-1.38-1.12,.1-.1,.19-.19,.29-.29,.36,.47,.73,.94,1.09,1.41h0Z"/><path class="cls-2" d="M42.63,92.98h-2.51c.84,0,1.68,0,2.51,0Z"/><path class="cls-2" d="M36.89,47.15c-.55,0-1.1,0-1.66,0,.55,0,1.1,0,1.66,0Z"/><path class="cls-2" d="M119.37,71.82c.16-.52,.32-1.04,.47-1.55,.19,0,.38,0,.57,0-.35,.52-.69,1.04-1.04,1.56Z"/><path class="cls-2" d="M33.62,47.13c-.29,.03-.58,.07-.87,.1,.29-.03,.58-.07,.87-.1Z"/><path class="cls-2" d="M41.81,47.14c-.29,0-.58,0-.86,0,.29,0,.58,0,.86,0Z"/><path class="cls-2" d="M66.32,34.3c-.03,.33-.06,.65-.08,.98-.3-.25-.6-.5-.9-.75,.33-.07,.66-.15,.99-.22Z"/><path class="cls-2" d="M49.73,36.69c-.2,.23-.41,.46-.61,.69,.2-.23,.41-.46,.61-.69Z"/><path class="cls-2" d="M64.69,34.32c0-.25-.01-.5-.03-.75l.65,.94h-.35s-.28-.2-.28-.2Z"/><path class="cls-2" d="M120.42,70.26c-.19,0-.38,0-.57,0,.14-.29,.28-.59,.42-.88,.05,.29,.1,.59,.15,.88Z"/><path class="cls-2" d="M43.29,121.08c1.11,1.13,2.21,2.26,3.32,3.39-1.11-1.13-2.21-2.26-3.32-3.39Z"/><path class="cls-2" d="M92.95,127.87h2.4l.1,.86c-.81,.1-1.62,.19-2.44,.29-.02-.38-.04-.76-.06-1.14Z"/><path class="cls-2" d="M102.35,118.56c0-1.09-.01-2.18-.02-3.27,1.97,1.08,1.96,2.17,.02,3.27Z"/><path class="cls-2" d="M100.59,122.6c.52-.94,1.04-1.88,1.56-2.83-.52,.94-1.04,1.88-1.56,2.83Z"/><path class="cls-2" d="M104.05,111.16c-.56,.56-1.13,1.11-1.69,1.67h-.01c.56-.58,1.11-1.14,1.67-1.71l.03,.03Z"/><path class="cls-2" d="M102.29,115.33c-.26-.82-.53-1.65-.79-2.47,.28-.01,.56-.03,.84-.04,0,0,.01,.01,.01,.01-.02,.83-.04,1.67-.06,2.5Z"/><path class="cls-2" d="M100.27,110.88c-.3-.29-.6-.59-.9-.88,.3,.29,.6,.59,.9,.88Z"/><path class="cls-2" d="M82.65,46.67c.84-1.14,1.67-2.27,2.51-3.41,3.45,1.13,7.06,.74,10.63,.8,.55,.54,1.11,1.09,1.66,1.63,.53-.54,1.06-1.07,1.59-1.61,1.1,0,2.21-.02,3.31-.01,.21,.43,.41,.87,.62,1.3,.34-.43,.67-.86,1.01-1.29,1.71-.01,3.41,.22,4.89-.79-.75-2.14,1.67-2.77,2.98-4.04,4.41,5.28,10.52,4.61,16.66,4.09,.17,.7,.35,1.39,.52,2.09,.21,0,.43,0,.64,0,.17-.7,.33-1.41,.5-2.11,.54,0,1.08,0,1.62,0,.28,2.49-.35,4.9-.76,7.34-.84-.01-1.68-.02-2.53-.03-.53-1.09-1.05-2.19-1.58-3.28-3.97-.07-7.94-.05-11.91-.09,.38-1.42,.97-3.07-1.4-2.93-.4,.02-.68,1.91-1.02,2.93-9.96-.03-20.05,.55-29.94-.59Z"/><path class="cls-2" d="M89.28,42.42c6.5-.06,13.01-.12,19.51-.18,.03,.35,.05,.71,.08,1.06-6.37,1.93-13.71,.24-20.41,.75,.27-.54,.55-1.09,.82-1.63Z"/><path class="cls-2" d="M102.19,35.25c-.91-.82-1.82-1.64-2.73-2.46,1.97-.35,3.19,.13,2.73,2.46Z"/><path class="cls-2" d="M91.78,39.21c-.83,.84-1.66,1.68-2.48,2.53-.25-1.9,.56-2.76,2.48-2.53Z"/><path class="cls-2" d="M103.85,37.06c-.55-.59-1.11-1.19-1.66-1.78,2.59-1.31,1.58,.74,1.66,1.78Z"/><path class="cls-2" d="M108,40.99c-.31-.3-.61-.59-.92-.89,.31,.3,.61,.59,.92,.89Z"/><path class="cls-2" d="M107.15,40.17c-.34-.3-.68-.59-1.02-.89,.34,.3,.68,.59,1.02,.89Z"/><path class="cls-2" d="M128.5,50.63c.84,.01,1.68,.02,2.53,.03-1.3,2.77-1.67,6.15-4.14,8.15-.55,0-1.11,0-1.66-.01-.76-5.87,2.37-1.2,1.61-7.41l.03,.05c.55-.27,1.09-.54,1.64-.81Z"/><path class="cls-2" d="M131.88,45.82c-.03-.83-.06-1.67-.08-2.5,.49,.32,.98,.64,1.46,.97-.46,.51-.92,1.02-1.38,1.53Z"/><path class="cls-2" d="M130.18,43.32c-.17,.7-.33,1.41-.5,2.11-.21,0-.43,0-.64,0-.17-.7-.35-1.39-.52-2.09,.55,0,1.11-.02,1.66-.02Z"/><path class="cls-2" d="M125.24,43.35c-1.38,.23-2.76,.45-4.14,.68,1.38-.23,2.76-.45,4.14-.68Z"/><path class="cls-2" d="M126.89,58.81c.54-.54,1.07-1.08,1.61-1.62,0,.52-.08,1.06-.03,1.57-.49,.05-.99,.09-1.48,.14l-.1-.1Z"/><path class="cls-2" d="M126.99,58.91c.49-.05,.99-.09,1.48-.14-.54,1.38-1.08,2.77-1.62,4.15,.05-1.34,.09-2.67,.14-4.01Z"/><path class="cls-2" d="M125.16,56.18c.54,3.44-1.84,6.26-3.02,9.35-.06-.35-.13-.71-.19-1.06,1.07-2.76,2.14-5.53,3.21-8.29Z"/><path class="cls-2" d="M112.6,47.26c.34-1.02,.62-2.91,1.02-2.93,2.37-.14,1.79,1.52,1.4,2.93-.81,0-1.61,0-2.42,0Z"/><path class="cls-2" d="M128.5,50.63c-.55,.27-1.09,.54-1.64,.81,.02-1.36,.04-2.73,.06-4.09,.53,1.09,1.05,2.19,1.58,3.28Z"/><path class="cls-2" d="M126.84,51.39c-.2,1.5,1,3.51-1.51,4.17,.5-1.39,1.01-2.78,1.51-4.17Z"/><path class="cls-2" d="M123.62,47.31c.54,0,1.09,0,1.63,0-.54,0-1.09,0-1.63,0Z"/><path class="cls-2" d="M95.8,44.07c2.18,0,4.36,0,6.55,0-1.1,0-2.2,.01-3.3,.02-.53,.54-1.06,1.07-1.59,1.61-.55-.54-1.11-1.09-1.66-1.63Z"/><path class="cls-2" d="M97.45,45.7c.53-.54,1.06-1.07,1.59-1.61-.53,.54-1.06,1.07-1.59,1.61Z"/><path class="cls-2" d="M102.35,44.08c.54,0,1.08,0,1.62,0-.34,.43-.67,.86-1.01,1.29-.21-.43-.41-.87-.62-1.3Z"/><path class="cls-2" d="M107.24,44.07c.54-.26,1.09-.52,1.63-.77-.54,.26-1.09,.52-1.63,.77Z"/></g></g></g></svg>