<?xml version="1.0" encoding="UTF-8"?><svg id="Warstwa_2" xmlns="http://www.w3.org/2000/svg" viewBox="0 0 173 354.5"><defs><style>.cls-1,.cls-2{letter-spacing:.02em;}.cls-1,.cls-3{font-family:Macha-Book, Macha;font-size:13.69px;}.cls-4{fill:#00ba3f;}.cls-4,.cls-5,.cls-6,.cls-7,.cls-8{stroke:#000;stroke-miterlimit:10;}.cls-5{fill:#a4561d;}.cls-6{fill:#f6240d;}.cls-9{letter-spacing:0em;}.cls-7{fill:#52882e;}.cls-10{letter-spacing:0em;}.cls-8{fill:#fcfcfc;}</style></defs><g id="Warstwa_1-2"><g><rect class="cls-8" x=".5" y=".5" width="172" height="45.62"/><rect class="cls-6" x=".5" y="44.41" width="172" height="45.62"/><rect class="cls-5" x=".5" y="90.04" width="172" height="45.62"/><rect class="cls-7" x=".5" y="135.66" width="172" height="45.62"/><rect class="cls-4" x=".5" y="180.14" width="172" height="45.62"/><text class="cls-3" transform="translate(68.86 26.73) scale(.88 1)"><tspan class="cls-2" x="0" y="0">#</tspan><tspan class="cls-9" x="7.9" y="0">f</tspan><tspan class="cls-2" x="12.02" y="0">c</tspan><tspan class="cls-9" x="18.68" y="0">f</tspan><tspan class="cls-2" x="22.8" y="0">c</tspan><tspan class="cls-10" x="29.47" y="0">f</tspan><tspan class="cls-2" x="33.59" y="0">c</tspan></text><text class="cls-1" transform="translate(64.32 69.75) scale(.88 1)"><tspan x="0" y="0">#f6240d</tspan></text><text class="cls-1" transform="translate(63.65 116.52) scale(.88 1)"><tspan x="0" y="0">#a4561d</tspan></text><text class="cls-1" transform="translate(63.35 161) scale(.88 1)"><tspan x="0" y="0">#52882e</tspan></text><text class="cls-1" transform="translate(64.36 206.62) scale(.88 1)"><tspan x="0" y="0">#00ba3f</tspan></text></g></g></svg>